<?xml version="1.0" encoding="iso-8859-1"?>
<!-- Generator: Adobe Illustrator 19.0.0, SVG Export Plug-In . SVG Version: 6.00 Build 0)  -->
<svg version="1.1" id="Capa_1" xmlns="http://www.w3.org/2000/svg" xmlns:xlink="http://www.w3.org/1999/xlink" x="0px" y="0px"
	 viewBox="0 0 480 480" style="enable-background:new 0 0 480 480;" xml:space="preserve">
<g>
	<g>
		<path d="M328,0H152c-22.08,0.026-39.974,17.92-40,40v400c0.026,22.08,17.92,39.974,40,40h176c22.08-0.026,39.974-17.92,40-40V40
			C367.974,17.92,350.08,0.026,328,0z M352,440c0,13.255-10.745,24-24,24H152c-13.255,0-24-10.745-24-24v-24h224V440z M352,400H128
			V88h224V400z M352,72H128V40c0-13.255,10.745-24,24-24h176c13.255,0,24,10.745,24,24V72z"/>
	</g>
</g>
<g>
	<g>
		<rect x="184" y="40" width="112" height="16"/>
	</g>
</g>
<g>
	<g>
		<rect x="224" y="432" width="32" height="16"/>
	</g>
</g>
<g>
	<g>
		<rect x="144" y="104" width="32" height="16"/>
	</g>
</g>
<g>
	<g>
		<rect x="192" y="104" width="32" height="16"/>
	</g>
</g>
<g>
	<g>
		<rect x="256" y="136" width="16" height="16"/>
	</g>
</g>
<g>
	<g>
		<rect x="288" y="120" width="16" height="32"/>
	</g>
</g>
<g>
	<g>
		<rect x="320" y="104" width="16" height="48"/>
	</g>
</g>
<g>
	<g>
		<path d="M288,248v-64h-56c-22.08,0.026-39.974,17.92-40,40v96c0.026,22.08,17.92,39.974,40,40h56v-64h-32v-48H288z M256,200h16v32
			h-16V200z M240,344h-8c-13.255,0-24-10.745-24-24v-96c0-13.255,10.745-24,24-24h8V344z M272,312v32h-16v-32H272z"/>
	</g>
</g>
<g>
	<g>
		<path d="M395.152,194.344l-11.312,11.312c18.929,18.984,18.929,49.704,0,68.688l11.312,11.312
			C420.318,260.421,420.318,219.579,395.152,194.344z"/>
	</g>
</g>
<g>
	<g>
		<path d="M419.152,170.344l-11.312,11.312c32.169,32.245,32.169,84.443,0,116.688l11.312,11.312
			C457.558,271.16,457.558,208.84,419.152,170.344z"/>
	</g>
</g>
<g>
	<g>
		<path d="M96.16,205.656l-11.312-11.312c-25.976,24.502-28.472,64.044-3.97,90.02c0.864,0.916,1.754,1.806,3.97,1.292
			l11.312-11.312C77.231,255.36,77.231,224.64,96.16,205.656z"/>
	</g>
</g>
<g>
	<g>
		<path d="M72.16,181.656l-11.312-11.312c-38.406,38.496-38.406,100.816,0,139.312l11.312-11.312
			C40,266.096,40,213.904,72.16,181.656z"/>
	</g>
</g>
<g>
</g>
<g>
</g>
<g>
</g>
<g>
</g>
<g>
</g>
<g>
</g>
<g>
</g>
<g>
</g>
<g>
</g>
<g>
</g>
<g>
</g>
<g>
</g>
<g>
</g>
<g>
</g>
<g>
</g>
</svg>
